<svg xmlns="http://www.w3.org/2000/svg"><path d="M47.25 58.204c1.36 0 2.482-.425 3.264-1.207.8-.8 1.173-1.853 1.173-3.35V46.1h-3.28v7.53c0 1.106-.528 1.667-1.344 1.667-.748 0-1.292-.408-1.87-1.105l-2.125 2.006c.85 1.14 2.108 2.006 4.182 2.006zm14.376.034c-3.672 0-6.392-2.737-6.392-6.154v-.034c0-3.417 2.754-6.188 6.426-6.188s6.392 2.737 6.392 6.154v.034c0 3.417-2.754 6.188-6.426 6.188zm.034-2.975c1.802 0 3.01-1.462 3.01-3.18v-.033c0-1.734-1.225-3.213-3.044-3.213-1.82 0-3.026 1.462-3.026 3.18v.033c0 1.717 1.24 3.213 3.06 3.213zM71.736 58V46.1h6.103c1.492 0 2.55.374 3.243 1.054.476.493.765 1.122.765 1.938v.034c0 1.377-.78 2.193-1.836 2.652 1.445.476 2.363 1.292 2.363 2.907v.034c0 2.04-1.666 3.28-4.505 3.28h-6.137zm6.868-8.194v-.034c0-.663-.527-1.02-1.496-1.02h-2.16v2.09h2.075c1.003 0 1.58-.34 1.58-1.036zm.476 4.42c0-.646-.51-1.07-1.615-1.07H74.95v2.192h2.55c1.02 0 1.58-.39 1.58-1.088v-.034zm11.47 3.978c2.89 0 4.81-1.445 4.81-3.876v-.034c0-2.227-1.7-3.11-4.42-3.706-1.666-.374-2.074-.612-2.074-1.156v-.034c0-.442.39-.765 1.19-.765 1.054 0 2.244.39 3.332 1.173l1.65-2.33c-1.293-1.036-2.874-1.58-4.897-1.58-2.852 0-4.603 1.598-4.603 3.808v.034c0 2.43 1.955 3.145 4.488 3.723 1.632.395 2.023.65 2.023 1.16v.034c0 .51-.476.817-1.377.817-1.377 0-2.67-.493-3.86-1.43l-1.835 2.194c1.48 1.31 3.468 1.972 5.576 1.972z" fill="rgb(34, 31, 31)"/></svg>