<svg xmlns="http://www.w3.org/2000/svg"><path d="M19.363 23.644h.135c1.35-.453 2.499-1.23 3.377-2.33 1.418-1.746 1.958-3.752 1.553-5.887-.338-1.747-1.283-3.17-2.701-4.335a7.36 7.36 0 0 0-3.917-1.553c-.878-.065-1.689-.065-2.5.13-1.755.387-3.173 1.293-4.254 2.652-.81 1.035-1.35 2.2-1.486 3.494-.135.841-.067 1.682.135 2.523.406 1.683 1.283 3.041 2.702 4.141.608.453 1.35.841 2.093 1.1.135.065.203 0 .203-.13 0-.129 0-.258-.068-.387-.067-.195 0-.389-.27-.453a6.122 6.122 0 0 1-2.634-1.941c-1.283-1.553-1.688-3.365-1.283-5.306.338-1.424 1.148-2.588 2.364-3.559 1.553-1.164 3.377-1.617 5.335-1.294 1.486.259 2.77.906 3.782 2.006 1.418 1.553 1.959 3.43 1.553 5.435-.405 2.07-1.62 3.559-3.579 4.464-.27.13-.473.26-.473.583 0 .259-.067.453-.067.647zm-4.12-1.359c.068.712.203 1.424.338 2.2.067.259.135.518.338.712a1.663 1.663 0 0 0 1.553.194c.54-.13.675-.518.743-.97.135-.712.202-1.489.337-2.2.135-.777.203-1.618.135-2.395a.933.933 0 0 0-.472-.84c-.743-.518-1.959-.518-2.702-.065-.337.194-.54.452-.54.84v.583l.27 1.941zm6.821-5.564c0-.194 0-.453-.067-.647-.203-1.294-.81-2.33-1.891-3.106-1.216-.906-2.567-1.23-4.12-.97-1.216.194-2.229.776-2.971 1.682-1.013 1.164-1.351 2.523-1.081 4.011.27 1.294.945 2.33 2.094 3.041.067 0 .135 0 .135.065 0-.065.067-.13.067-.194v-.647c0-.13-.067-.259-.135-.388-.81-.777-1.216-1.683-1.216-2.718 0-1.1.406-2.07 1.149-2.847.945-.906 2.16-1.294 3.511-1.164a3.988 3.988 0 0 1 2.567 1.358c.81.906 1.08 2.006.945 3.17a3.633 3.633 0 0 1-1.215 2.2.483.483 0 0 0-.136.26v.711c0 .065 0 .13.068.194.068 0 .135-.064.203-.064 1.35-.906 2.026-2.265 2.093-3.947zM17 14.52c-.878-.065-1.756.647-1.756 1.682 0 .97.81 1.682 1.756 1.682s1.756-.647 1.824-1.682c-.068-1.035-.946-1.682-1.824-1.682z" fill="rgb(255, 255, 255)"/></svg>