<svg xmlns="http://www.w3.org/2000/svg"><path d="M21.345 21.226h-1.798V18.44c0-.665-.014-1.519-.936-1.519-.937 0-1.08.724-1.08 1.47v2.834h-1.8v-5.727h1.727v.782h.025c.24-.45.828-.925 1.704-.925 1.822 0 2.158 1.186 2.158 2.728v3.142zm-7.645-6.51a1.038 1.038 0 0 1-1.043-1.032c0-.57.466-1.032 1.043-1.032.576 0 1.044.463 1.044 1.032 0 .57-.468 1.032-1.044 1.032zm-.9 6.51v-5.727H14.6v5.727H12.8zM22.242 11H11.896c-.494 0-.896.388-.896.865v10.27c0 .477.402.865.896.865h10.346c.495 0 .9-.388.9-.866v-10.27c0-.476-.405-.864-.9-.864z" fill="rgb(255, 255, 255)"/></svg>